<svg width="288" height="273" viewBox="0 0 288 273" fill="none" xmlns="http://www.w3.org/2000/svg">
<circle cx="209.413" cy="31" r="31" fill="#263528"/>
<circle cx="81.4126" cy="31" r="31" fill="#263528"/>
<path d="M174.651 260.498C174.539 257.339 171.795 231.332 169.266 228.681C166.737 226.029 156.215 221.598 148.25 220.412C137.687 218.839 123.335 222.837 117.759 227.095C112.184 231.353 108.801 261.548 110.379 262.92C111.956 264.292 129.151 272.69 141.747 272.69C156.543 272.69 174.754 263.35 174.651 260.498Z" fill="#263528"/>
<path d="M114.592 261.643C118.548 263.655 122.637 265.398 126.824 266.847C131.009 268.273 135.373 269.344 139.797 269.262C144.219 269.227 148.615 268.461 152.923 267.455C157.225 266.393 161.481 265.118 165.638 263.569C161.53 265.249 157.291 266.608 152.979 267.685C148.667 268.73 144.264 269.544 139.799 269.617C135.315 269.66 130.929 268.538 126.748 267.071C122.55 265.602 118.484 263.776 114.592 261.643Z" fill="#445D48"/>
<path d="M114.004 258.193C118.126 260.293 122.389 262.113 126.755 263.623C131.117 265.111 135.668 266.227 140.28 266.143C144.891 266.106 149.473 265.307 153.966 264.256C158.452 263.149 162.887 261.818 167.221 260.2C162.937 261.949 158.517 263.364 154.022 264.486C149.527 265.576 144.935 266.421 140.282 266.496C135.61 266.541 131.037 265.372 126.676 263.845C122.303 262.317 118.062 260.415 114.004 258.193Z" fill="#445D48"/>
<path d="M113.521 254.97C117.788 257.146 122.204 259.033 126.725 260.597C131.244 262.139 135.955 263.297 140.734 263.211C145.509 263.171 150.255 262.343 154.909 261.255C159.555 260.108 164.148 258.729 168.636 257.049C164.197 258.858 159.62 260.321 154.965 261.484C150.308 262.612 145.555 263.489 140.736 263.565C135.897 263.612 131.162 262.404 126.647 260.821C122.116 259.237 117.726 257.269 113.521 254.97Z" fill="#445D48"/>
<path d="M113.952 252.02C118.219 254.197 122.635 256.084 127.156 257.648C131.675 259.19 136.387 260.347 141.165 260.26C145.942 260.22 150.688 259.392 155.34 258.303C159.986 257.157 164.58 255.778 169.067 254.098C164.63 255.907 160.051 257.37 155.396 258.533C150.741 259.66 145.986 260.536 141.167 260.612C136.329 260.661 131.593 259.451 127.078 257.869C122.548 256.288 118.157 254.32 113.952 252.02Z" fill="#445D48"/>
<path d="M113.472 248.595C117.89 250.85 122.46 252.806 127.141 254.426C131.819 256.022 136.698 257.223 141.647 257.133C146.591 257.092 151.506 256.233 156.324 255.106C161.134 253.919 165.89 252.489 170.534 250.747C165.938 252.618 161.197 254.132 156.38 255.334C151.558 256.5 146.638 257.407 141.65 257.486C136.642 257.536 131.741 256.286 127.065 254.649C122.374 253.01 117.827 250.971 113.472 248.595Z" fill="#445D48"/>
<path d="M112.696 244.853C117.232 247.171 121.926 249.18 126.733 250.845C131.537 252.483 136.549 253.717 141.632 253.626C146.711 253.583 151.758 252.7 156.706 251.543C161.645 250.324 166.53 248.853 171.299 247.063C166.579 248.984 161.711 250.535 156.762 251.77C151.812 252.969 146.757 253.898 141.636 253.979C136.493 254.031 131.459 252.747 126.658 251.065C121.838 249.383 117.168 247.294 112.696 244.853Z" fill="#445D48"/>
<path d="M112.085 241.286C116.795 243.695 121.669 245.782 126.66 247.511C131.649 249.215 136.851 250.495 142.132 250.402C147.407 250.357 152.648 249.439 157.785 248.235C162.915 246.969 167.986 245.441 172.936 243.58C168.035 245.571 162.978 247.182 157.839 248.465C152.699 249.708 147.45 250.673 142.134 250.755C136.795 250.809 131.569 249.476 126.583 247.733C121.581 245.986 116.731 243.817 112.085 241.286Z" fill="#445D48"/>
<path d="M111.257 237.859C116.093 240.336 121.099 242.48 126.227 244.257C131.352 246.008 136.698 247.326 142.123 247.229C147.541 247.182 152.926 246.238 158.203 245.002C163.473 243.701 168.682 242.131 173.769 240.216C168.733 242.26 163.538 243.914 158.259 245.23C152.979 246.507 147.588 247.496 142.126 247.582C136.642 247.638 131.274 246.269 126.152 244.479C121.011 242.684 116.029 240.457 111.257 237.859Z" fill="#445D48"/>
<path d="M204.766 254.043C242.699 254.072 274.524 226.534 278.497 188.81C280.82 166.759 283.17 139.574 284.913 108.072C287.12 68.1917 258.04 33.9754 218.225 30.7916C177.531 27.5374 123.462 25.2243 68.8241 28.8119C29.1197 31.4189 1.01193 66.4373 3.15284 106.169C4.58138 132.681 6.48531 162.961 8.84404 189.686C11.9768 225.181 41.0713 250.555 76.6848 251.741C111.02 252.885 156.731 254.006 204.766 254.043Z" fill="#445D48"/>
<mask id="mask0_101_3143" style="mask-type:alpha" maskUnits="userSpaceOnUse" x="22" y="47" width="244" height="193">
<path d="M188.213 239.921C225.878 240.058 257.499 212.882 261.217 175.401C262.569 161.769 263.889 146.127 265.005 128.642C267.604 87.9336 237.225 53.1345 196.524 50.4215C163.738 48.2359 123.8 46.7204 85.976 48.3101C46.9886 49.9486 19.8703 84.253 22.1526 123.208C23.1583 140.374 24.3893 158.861 25.8368 176.166C28.8071 211.676 57.8104 237.094 93.4267 238.205C120.033 239.035 153.217 239.793 188.213 239.921Z" fill="#37474F"/>
</mask>
<g mask="url(#mask0_101_3143)">
<path d="M11.4128 50.4223C12.4639 76.0895 17.8406 198.508 26.896 236.623C26.896 236.623 146.031 242.758 257.849 240.502C260.052 228.311 271.654 159.701 273.413 52.9158C273.413 52.9158 109.284 32.3742 11.4128 50.4223Z" fill="#263528"/>
<path d="M71.2966 71.676C53.6089 73.0156 41 88.5763 42.0506 106.283C43.4069 129.142 45.518 159.003 48.3274 181.634C50.209 196.792 62.9891 207.373 78.2542 207.9C106.965 208.89 156.192 210.228 207 209.967C223.422 209.882 237.422 198.201 239.666 181.933C242.067 164.523 244.778 139.758 246.326 108.889C247.23 90.8433 233.701 75.5193 215.689 74.0883C180.122 71.2625 120.927 67.917 71.2966 71.676Z" fill="#445D48" fill-opacity="0.2"/>
</g>
<path d="M108.913 57C82.7461 56.1667 31.4127 67.2 35.4127 118C43.4127 93.5 59.4127 64.5 108.913 57Z" fill="#D9D9D9" fill-opacity="0.3"/>
<ellipse cx="239.585" cy="182.654" rx="11.5" ry="17.5" transform="rotate(13.1216 239.585 182.654)" fill="#D9D9D9" fill-opacity="0.3"/>
<ellipse cx="220.345" cy="211.654" rx="7.25558" ry="8.22131" transform="rotate(13.1216 220.345 211.654)" fill="#D9D9D9" fill-opacity="0.3"/>
<path d="M97.1647 180.822C110.963 193.758 126.966 194.312 136.008 192.422C137.505 192.109 137.701 190.223 136.377 189.458C136.014 189.248 135.592 189.173 135.176 189.233C127.675 190.314 111.164 189.584 99.255 178.716C98.7966 178.298 98.1307 178.183 97.5684 178.445C96.6317 178.883 96.4104 180.115 97.1647 180.822Z" stroke="#D6CC99" stroke-width="4"/>
<path d="M190.9 100.095C185.428 100.316 181.565 105.119 181.893 110.586C182.064 113.425 182.275 116.501 182.527 119.315C182.963 124.181 186.962 127.649 191.845 127.806C196.079 127.943 201.567 128.075 207.382 128.096C212.619 128.115 217.048 124.32 217.58 119.11C217.81 116.866 218.034 114.242 218.215 111.275C218.558 105.669 214.375 100.887 208.773 100.492C203.597 100.127 197.059 99.8455 190.9 100.095Z" fill="#D6CC99"/>
<path d="M84.8996 100.095C79.428 100.316 75.5654 105.119 75.8932 110.586C76.0635 113.425 76.2755 116.501 76.5273 119.315C76.9628 124.181 80.9621 127.649 85.8447 127.806C90.0795 127.943 95.5674 128.075 101.382 128.096C106.619 128.115 111.048 124.32 111.58 119.11C111.81 116.866 112.034 114.242 112.215 111.275C112.558 105.669 108.375 100.887 102.773 100.492C97.5971 100.127 91.0592 99.8455 84.8996 100.095Z" fill="#D6CC99"/>
</svg>
